packet|codec_type=video|stream_index=0|pts=0|pts_time=0.000000|dts=-1024|dts_time=-0.080000|duration=512|duration_time=0.040000|size=22583|pos=48|flags=K__|data_hash=CRC32:69e4d65d
packet|codec_type=video|stream_index=0|pts=2048|pts_time=0.160000|dts=-512|dts_time=-0.040000|duration=512|duration_time=0.040000|size=4023|pos=22631|flags=___|data_hash=CRC32:0013cf12
packet|codec_type=video|stream_index=0|pts=4096|pts_time=0.320000|dts=1536|dts_time=0.120000|duration=512|duration_time=0.040000|size=4214|pos=26654|flags=___|data_hash=CRC32:3d1a75de
packet|codec_type=video|stream_index=0|pts=6144|pts_time=0.480000|dts=3584|dts_time=0.280000|duration=512|duration_time=0.040000|size=4067|pos=30868|flags=___|data_hash=CRC32:0ae6ba93
packet|codec_type=video|stream_index=0|pts=8192|pts_time=0.640000|dts=5632|dts_time=0.440000|duration=512|duration_time=0.040000|size=4223|pos=34935|flags=___|data_hash=CRC32:653ad50a
packet|codec_type=video|stream_index=0|pts=10240|pts_time=0.800000|dts=7680|dts_time=0.600000|duration=512|duration_time=0.040000|size=4757|pos=39158|flags=___|data_hash=CRC32:9c63fc60
packet|codec_type=video|stream_index=0|pts=12288|pts_time=0.960000|dts=9728|dts_time=0.760000|duration=512|duration_time=0.040000|size=26559|pos=43915|flags=K__|data_hash=CRC32:3d91ff30
packet|codec_type=video|stream_index=0|pts=14336|pts_time=1.120000|dts=11776|dts_time=0.920000|duration=512|duration_time=0.040000|size=3419|pos=70474|flags=___|data_hash=CRC32:a16c6e06
packet|codec_type=video|stream_index=0|pts=16384|pts_time=1.280000|dts=13824|dts_time=1.080000|duration=512|duration_time=0.040000|size=4270|pos=73893|flags=___|data_hash=CRC32:75f5fba0
packet|codec_type=video|stream_index=0|pts=18432|pts_time=1.440000|dts=15872|dts_time=1.240000|duration=512|duration_time=0.040000|size=6351|pos=78163|flags=___|data_hash=CRC32:b71a5f72
packet|codec_type=video|stream_index=0|pts=20480|pts_time=1.600000|dts=17920|dts_time=1.400000|duration=512|duration_time=0.040000|size=5504|pos=84514|flags=___|data_hash=CRC32:f4513593
packet|codec_type=video|stream_index=0|pts=22528|pts_time=1.760000|dts=19968|dts_time=1.560000|duration=512|duration_time=0.040000|size=5330|pos=90018|flags=___|data_hash=CRC32:e0e58cfc
packet|codec_type=video|stream_index=0|pts=24576|pts_time=1.920000|dts=22016|dts_time=1.720000|duration=512|duration_time=0.040000|size=25829|pos=95348|flags=K__|data_hash=CRC32:0ffa1941
packet|codec_type=video|stream_index=0|pts=26624|pts_time=2.080000|dts=24064|dts_time=1.880000|duration=512|duration_time=0.040000|size=3788|pos=121177|flags=___|data_hash=CRC32:b7d88c97
packet|codec_type=video|stream_index=0|pts=28672|pts_time=2.240000|dts=26112|dts_time=2.040000|duration=512|duration_time=0.040000|size=5277|pos=124965|flags=___|data_hash=CRC32:836281be
packet|codec_type=video|stream_index=0|pts=30720|pts_time=2.400000|dts=28160|dts_time=2.200000|duration=512|duration_time=0.040000|size=4423|pos=130242|flags=___|data_hash=CRC32:16ce42d5
packet|codec_type=video|stream_index=0|pts=32768|pts_time=2.560000|dts=30208|dts_time=2.360000|duration=512|duration_time=0.040000|size=4789|pos=134665|flags=___|data_hash=CRC32:c3253157
packet|codec_type=video|stream_index=0|pts=34816|pts_time=2.720000|dts=32256|dts_time=2.520000|duration=512|duration_time=0.040000|size=4543|pos=139454|flags=___|data_hash=CRC32:2b284455
packet|codec_type=video|stream_index=0|pts=36864|pts_time=2.880000|dts=34304|dts_time=2.680000|duration=512|duration_time=0.040000|size=24224|pos=143997|flags=K__|data_hash=CRC32:f4545b97
packet|codec_type=video|stream_index=0|pts=38912|pts_time=3.040000|dts=36352|dts_time=2.840000|duration=512|duration_time=0.040000|size=3804|pos=168221|flags=___|data_hash=CRC32:9e182c9d
packet|codec_type=video|stream_index=0|pts=40960|pts_time=3.200000|dts=38400|dts_time=3.000000|duration=512|duration_time=0.040000|size=4832|pos=172025|flags=___|data_hash=CRC32:9177a3b3
packet|codec_type=video|stream_index=0|pts=43008|pts_time=3.360000|dts=40448|dts_time=3.160000|duration=512|duration_time=0.040000|size=5169|pos=176857|flags=___|data_hash=CRC32:4b98426d
packet|codec_type=video|stream_index=0|pts=45056|pts_time=3.520000|dts=42496|dts_time=3.320000|duration=512|duration_time=0.040000|size=5428|pos=182026|flags=___|data_hash=CRC32:1b44d316
packet|codec_type=video|stream_index=0|pts=47104|pts_time=3.680000|dts=44544|dts_time=3.480000|duration=512|duration_time=0.040000|size=5354|pos=187454|flags=___|data_hash=CRC32:e9e88511
packet|codec_type=video|stream_index=0|pts=49152|pts_time=3.840000|dts=46592|dts_time=3.640000|duration=512|duration_time=0.040000|size=24046|pos=192808|flags=K__|data_hash=CRC32:ce41a6fe
packet|codec_type=video|stream_index=0|pts=51200|pts_time=4.000000|dts=48640|dts_time=3.800000|duration=512|duration_time=0.040000|size=4427|pos=216854|flags=___|data_hash=CRC32:69f58de5
packet|codec_type=video|stream_index=0|pts=53248|pts_time=4.160000|dts=50688|dts_time=3.960000|duration=512|duration_time=0.040000|size=5196|pos=221281|flags=___|data_hash=CRC32:82877b2a
packet|codec_type=video|stream_index=0|pts=55296|pts_time=4.320000|dts=52736|dts_time=4.120000|duration=512|duration_time=0.040000|size=6958|pos=226477|flags=___|data_hash=CRC32:14b54257
packet|codec_type=video|stream_index=0|pts=57344|pts_time=4.480000|dts=54784|dts_time=4.280000|duration=512|duration_time=0.040000|size=5007|pos=233435|flags=___|data_hash=CRC32:7b5d6eff
packet|codec_type=video|stream_index=0|pts=59392|pts_time=4.640000|dts=56832|dts_time=4.440000|duration=512|duration_time=0.040000|size=1864|pos=238442|flags=___|data_hash=CRC32:32f9a8b3
packet|codec_type=video|stream_index=0|pts=61440|pts_time=4.800000|dts=58880|dts_time=4.600000|duration=512|duration_time=0.040000|size=22592|pos=240306|flags=K__|data_hash=CRC32:413e519a
packet|codec_type=video|stream_index=0|pts=61952|pts_time=4.840000|dts=60928|dts_time=4.760000|duration=512|duration_time=0.040000|size=158|pos=262898|flags=___|data_hash=CRC32:aedfe6be
packet|codec_type=video|stream_index=0|pts=62464|pts_time=4.880000|dts=61440|dts_time=4.800000|duration=512|duration_time=0.040000|size=332|pos=263056|flags=___|data_hash=CRC32:4d2e6f42
packet|codec_type=video|stream_index=0|pts=63488|pts_time=4.960000|dts=61952|dts_time=4.840000|duration=512|duration_time=0.040000|size=326|pos=263388|flags=___|data_hash=CRC32:c9e610e6
packet|codec_type=video|stream_index=0|pts=64000|pts_time=5.000000|dts=62976|dts_time=4.920000|duration=512|duration_time=0.040000|size=235|pos=263714|flags=___|data_hash=CRC32:5b757bc6
stream|index=0|codec_name=h264|profile=77|codec_type=video|codec_tag_string=avc1|codec_tag=0x31637661|width=640|height=360|coded_width=640|coded_height=360|closed_captions=0|film_grain=0|has_b_frames=2|sample_aspect_ratio=1:1|display_aspect_ratio=16:9|pix_fmt=yuv420p|level=41|color_range=unknown|color_space=unknown|color_transfer=unknown|color_primaries=unknown|chroma_location=left|field_order=tt|refs=1|is_avc=true|nal_length_size=4|id=0x1|r_frame_rate=25/1|avg_frame_rate=125/18|time_base=1/12800|start_pts=0|start_time=0.000000|duration_ts=64512|duration=5.040000|bit_rate=418890|max_bit_rate=N/A|bits_per_raw_sample=8|nb_frames=35|nb_read_frames=N/A|nb_read_packets=35|extradata_size=54|extradata_hash=CRC32:148701ce|disposition:default=1|disposition:dub=0|disposition:original=0|disposition:comment=0|disposition:lyrics=0|disposition:karaoke=0|disposition:forced=0|disposition:hearing_impaired=0|disposition:visual_impaired=0|disposition:clean_effects=0|disposition:attached_pic=0|disposition:timed_thumbnails=0|disposition:captions=0|disposition:descriptions=0|disposition:metadata=0|disposition:dependent=0|disposition:still_image=0|tag:language=und|tag:handler_name=GPAC ISO Video Handler|tag:vendor_id=[0][0][0][0]
format|filename=cbs-h264-discard-bidir.mp4|nb_streams=1|nb_programs=0|format_name=mov,mp4,m4a,3gp,3g2,mj2|start_time=0.000000|duration=5.040000|size=264989|bit_rate=420617|probe_score=100|tag:major_brand=isom|tag:minor_version=512|tag:compatible_brands=isomiso2avc1mp41
